HIERARCHY
ROOT hip
{
  OFFSET 0.00112043 5.09927 -9.65472
  CHANNELS 6 Xposition Yposition Zposition Zrotation Xrotation Yrotation
  JOINT abdomen
  {
    OFFSET 0 -1.186 -1.5018
    CHANNELS 3 Zrotation Xrotation Yrotation
    JOINT abdomen2
    {
      OFFSET 0 9.964 0.2134
      CHANNELS 3 Zrotation Xrotation Yrotation
      JOINT chest
      {
        OFFSET 0 13.134 -3.2573
        CHANNELS 3 Zrotation Xrotation Yrotation
        JOINT neck
        {
          OFFSET 0 20.686 -1.6905
          CHANNELS 3 Zrotation Xrotation Yrotation
          JOINT head
          {
            OFFSET 0 7.238 -0.1237
            CHANNELS 3 Zrotation Xrotation Yrotation
            End Site
            {
              OFFSET 0 0 0
            }
          }
        }
        JOINT lCollar
        {
          OFFSET 1.7069 20.075 5.0056
          CHANNELS 3 Zrotation Xrotation Yrotation
          JOINT lShldr
          {
            OFFSET 13.6458 -0.047 -4.849
            CHANNELS 3 Zrotation Xrotation Yrotation
            JOINT lForeArm
            {
              OFFSET 28.3255 -0.9759 2.2888
              CHANNELS 3 Zrotation Xrotation Yrotation
              JOINT lHand
              {
                OFFSET 22.1583 -0.53 10.8316
                CHANNELS 3 Zrotation Xrotation Yrotation
                JOINT lThumb1
                {
                  OFFSET 0.786 0.112 2.5817
                  CHANNELS 3 Zrotation Xrotation Yrotation
                  JOINT lThumb2
                  {
                    OFFSET 0.3601 -0.878 4.2331
                    CHANNELS 3 Zrotation Xrotation Yrotation
                    JOINT lThumb2_End
                    {
                      OFFSET 1.8127 -1.216 2.2227
                      CHANNELS 3 Zrotation Xrotation Yrotation
                      End Site
                      {
                        OFFSET 0.0181 -0.0122 0.0222
                      }
                    }
                  }
                }
                JOINT lCarpal1
                {
                  OFFSET 0.9571 1.114 1.7695
                  CHANNELS 3 Zrotation Xrotation Yrotation
                  JOINT lIndex1
                  {
                    OFFSET 4.1246 0.487 4.1451
                    CHANNELS 3 Zrotation Xrotation Yrotation
                    JOINT lIndex2
                    {
                      OFFSET 3.4052 -1.454 2.7682
                      CHANNELS 3 Zrotation Xrotation Yrotation
                      JOINT lIndex2_End
                      {
                        OFFSET 1.4531 -1.795 1.2713
                        CHANNELS 3 Zrotation Xrotation Yrotation
                        End Site
                        {
                          OFFSET 0.0145 -0.0179 0.0127
                        }
                      }
                    }
                  }
                  JOINT lMid1
                  {
                    OFFSET 5.6954 0.21 2.1184
                    CHANNELS 3 Zrotation Xrotation Yrotation
                    JOINT lMid2
                    {
                      OFFSET 3.9766 -1.54 2.3863
                      CHANNELS 3 Zrotation Xrotation Yrotation
                      JOINT lMid2_End
                      {
                        OFFSET 1.4042 -1.926 1.125
                        CHANNELS 3 Zrotation Xrotation Yrotation
                        End Site
                        {
                          OFFSET 0.014 -0.0193 0.0113
                        }
                      }
                    }
                  }
                }
                JOINT lCarpal2
                {
                  OFFSET 2.0956 0.66 -0.3894
                  CHANNELS 3 Zrotation Xrotation Yrotation
                  JOINT lRing1
                  {
                    OFFSET 5.0395 -0.09 2.4971
                    CHANNELS 3 Zrotation Xrotation Yrotation
                    JOINT lRing2
                    {
                      OFFSET 3.7921 -1.552 1.4806
                      CHANNELS 3 Zrotation Xrotation Yrotation
                      JOINT lRing2_End
                      {
                        OFFSET 1.4655 -1.808 0.9609
                        CHANNELS 3 Zrotation Xrotation Yrotation
                        End Site
                        {
                          OFFSET 0.0147 -0.0181 0.0096
                        }
                      }
                    }
                  }
                  JOINT lPinky1
                  {
                    OFFSET 4.9141 -1.269 0.3591
                    CHANNELS 3 Zrotation Xrotation Yrotation
                    JOINT lPinky2
                    {
                      OFFSET 3.1477 -1.685 0.8462
                      CHANNELS 3 Zrotation Xrotation Yrotation
                      JOINT lPinky2_End
                      {
                        OFFSET 0.8055 -1.585 0.7955
                        CHANNELS 3 Zrotation Xrotation Yrotation
                        End Site
                        {
                          OFFSET 0.0081 -0.0158 0.008
                        }
                      }
                    }
                  }
                }
              }
            }
          }
        }
        JOINT rCollar
        {
          OFFSET -1.7069 20.075 5.0056
          CHANNELS 3 Zrotation Xrotation Yrotation
          JOINT rShldr
          {
            OFFSET -13.6458 -0.047 -4.849
            CHANNELS 3 Zrotation Xrotation Yrotation
            JOINT rForeArm
            {
              OFFSET -28.3255 -0.9759 2.2888
              CHANNELS 3 Zrotation Xrotation Yrotation
              JOINT rHand
              {
                OFFSET -22.1583 -0.53 10.8316
                CHANNELS 3 Zrotation Xrotation Yrotation
                JOINT rThumb1
                {
                  OFFSET -0.786 0.112 2.5817
                  CHANNELS 3 Zrotation Xrotation Yrotation
                  JOINT rThumb2
                  {
                    OFFSET -0.3601 -0.878 4.2331
                    CHANNELS 3 Zrotation Xrotation Yrotation
                    JOINT rThumb2_End
                    {
                      OFFSET -1.8127 -1.216 2.2227
                      CHANNELS 3 Zrotation Xrotation Yrotation
                      End Site
                      {
                        OFFSET -0.0181 -0.0122 0.0222
                      }
                    }
                  }
                }
                JOINT rCarpal1
                {
                  OFFSET -0.9571 1.114 1.7695
                  CHANNELS 3 Zrotation Xrotation Yrotation
                  JOINT rIndex1
                  {
                    OFFSET -4.1246 0.487 4.1451
                    CHANNELS 3 Zrotation Xrotation Yrotation
                    JOINT rIndex2
                    {
                      OFFSET -3.4052 -1.454 2.7682
                      CHANNELS 3 Zrotation Xrotation Yrotation
                      JOINT rIndex2_End
                      {
                        OFFSET -1.4531 -1.795 1.2713
                        CHANNELS 3 Zrotation Xrotation Yrotation
                        End Site
                        {
                          OFFSET -0.0145 -0.018 0.0127
                        }
                      }
                    }
                  }
                  JOINT rMid1
                  {
                    OFFSET -5.6954 0.21 2.1184
                    CHANNELS 3 Zrotation Xrotation Yrotation
                    JOINT rMid2
                    {
                      OFFSET -3.9766 -1.54 2.3863
                      CHANNELS 3 Zrotation Xrotation Yrotation
                      JOINT rMid2_End
                      {
                        OFFSET -1.4042 -1.926 1.125
                        CHANNELS 3 Zrotation Xrotation Yrotation
                        End Site
                        {
                          OFFSET -0.014 -0.0193 0.0113
                        }
                      }
                    }
                  }
                }
                JOINT rCarpal2
                {
                  OFFSET -2.0956 0.66 -0.3894
                  CHANNELS 3 Zrotation Xrotation Yrotation
                  JOINT rRing1
                  {
                    OFFSET -5.0395 -0.09 2.4971
                    CHANNELS 3 Zrotation Xrotation Yrotation
                    JOINT rRing2
                    {
                      OFFSET -3.7921 -1.552 1.4806
                      CHANNELS 3 Zrotation Xrotation Yrotation
                      JOINT rRing2_End
                      {
                        OFFSET -1.4655 -1.808 0.9609
                        CHANNELS 3 Zrotation Xrotation Yrotation
                        End Site
                        {
                          OFFSET -0.0147 -0.0181 0.0096
                        }
                      }
                    }
                  }
                  JOINT rPinky1
                  {
                    OFFSET -4.9141 -1.269 0.3592
                    CHANNELS 3 Zrotation Xrotation Yrotation
                    JOINT rPinky2
                    {
                      OFFSET -3.1477 -1.685 0.8462
                      CHANNELS 3 Zrotation Xrotation Yrotation
                      JOINT rPinky2_End
                      {
                        OFFSET -0.8055 -1.585 0.7955
                        CHANNELS 3 Zrotation Xrotation Yrotation
                        End Site
                        {
                          OFFSET -0.0081 -0.0158 0.008
                        }
                      }
                    }
                  }
                }
              }
            }
          }
        }
      }
    }
  }
  JOINT lThigh
  {
    OFFSET 8.367 -8.2066 0.5982
    CHANNELS 3 Zrotation Xrotation Yrotation
    JOINT lShin
    {
      OFFSET 2.1923 -43.463 -0.4932
      CHANNELS 3 Zrotation Xrotation Yrotation
      JOINT lFoot
      {
        OFFSET 0.7333 -45.8593 -2.6451
        CHANNELS 3 Zrotation Xrotation Yrotation
        End Site
        {
          OFFSET 2.6618 -4.2699 12.3931
        }
      }
    }
  }
  JOINT rThigh
  {
    OFFSET -8.367 -8.2066 0.5982
    CHANNELS 3 Zrotation Xrotation Yrotation
    JOINT rShin
    {
      OFFSET -2.1923 -43.463 -0.4931
      CHANNELS 3 Zrotation Xrotation Yrotation
      JOINT rFoot
      {
        OFFSET -0.7333 -45.8593 -2.6451
        CHANNELS 3 Zrotation Xrotation Yrotation
        End Site
        {
          OFFSET -2.6618 -4.2699 12.3931
        }
      }
    }
  }
}
MOTION
Frames:	6
Frame Time:	0.0333333
0 91.7903 2.51682 0 0 -0 0 0 -0 0 0 -0 0 0 -0 0 0 -0 0 0 -0 0 0 -0 1.66051 0.0835086 5.75766 -0.0175111 0.895433 15.7816 7.95139e-016 -1.98785e-016 -0 5.46658e-016 -3.97569e-016 -0 5.96354e-016 0 -0 3.97569e-016 1.98785e-016 9.54166e-015 1.49089e-016 -3.97569e-016 -0 6.4605e-016 0 3.18055e-015 5.96354e-016 0 3.18055e-015 8.94531e-016 -1.98785e-016 6.36111e-015 6.4605e-016 0 3.18055e-015 5.96354e-016 0 3.18055e-015 8.94531e-016 -1.98785e-016 6.36111e-015 1.49089e-016 -3.97569e-016 -0 6.4605e-016 0 3.18055e-015 5.96354e-016 0 3.18055e-015 8.94531e-016 -1.98785e-016 6.36111e-015 6.4605e-016 0 3.18055e-015 5.96354e-016 0 3.18055e-015 8.94531e-016 -1.98785e-016 6.36111e-015 0 0 -0 -1.4496 0.0636048 -5.0245 -1.74811 1.20616 -16.8394 -1.19271e-015 1.98785e-016 -3.18055e-015 -3.97569e-016 1.98785e-016 -3.18055e-015 -2.98177e-016 1.98785e-016 -3.18055e-015 -2.98177e-016 3.97569e-016 -0 4.96962e-016 0 -6.36111e-015 -9.93923e-017 3.97569e-016 -0 -8.94531e-016 5.96354e-016 -0 -3.97569e-016 3.97569e-016 -0 -9.93923e-017 3.97569e-016 -0 -8.94531e-016 5.96354e-016 -0 -3.97569e-016 3.97569e-016 -0 4.96962e-016 0 -6.36111e-015 -9.93923e-017 3.97569e-016 -0 -8.94531e-016 5.96354e-016 -0 -3.97569e-016 3.97569e-016 -0 -9.93923e-017 3.97569e-016 -0 -8.94531e-016 5.96354e-016 -0 -3.97569e-016 3.97569e-016 -0 -4.66111 -0.998717 0.12318 0.00986924 1.54847 0.176523 4.65186 -0.572283 -0.254274 4.66111 -0.998765 -0.123176 -0.00986867 1.54869 -0.176537 -4.65186 -0.572453 0.25427 
0.000162577 28.0161 -9.33506 -0 -66.6681 -0 1.08834 0.282697 0.134237 2.17605 0.567805 0.263087 2.17605 0.567816 0.263086 0.00911018 1.71508 -0.480036 -4.43059e-007 23.115 4.1605e-007 -6.20068 -0.154041 -0.00738725 -3.59033 -8.10205 -21.5328 -43.8069 11.007 -35.0173 -30.7454 11.5705 2.6213 -2.44494e-006 2.21588e-006 5.19635e-007 3.97569e-016 1.3418e-015 -7.95139e-016 -2.33041e-006 -1.14533e-007 6.15129e-007 -7.95139e-016 7.85199e-015 2.38542e-015 -2.44494e-006 2.21588e-006 5.19635e-007 1.19271e-015 4.67144e-015 7.95139e-016 -2.33041e-006 -1.14533e-007 6.15129e-007 -2.44494e-006 2.21588e-006 5.19635e-007 1.19271e-015 4.67144e-015 7.95139e-016 -2.33041e-006 -1.14533e-007 6.15129e-007 -7.95139e-016 7.85199e-015 2.38542e-015 -2.44494e-006 2.21588e-006 5.19635e-007 1.19271e-015 4.67144e-015 7.95139e-016 -2.33041e-006 -1.14533e-007 6.15129e-007 -2.44494e-006 2.21588e-006 5.19635e-007 1.19271e-015 4.67144e-015 7.95139e-016 -2.33041e-006 -1.14533e-007 6.15129e-007 12.531 0.0228541 6.1552 14.1506 -7.47114 11.4362 42.3216 2.8709 5.93999 25.8492 23.8315 -0.245795 5.72877e-007 -2.58726e-006 -8.23583e-007 3.18055e-015 3.48867e-014 -1.15295e-014 3.18055e-015 2.87244e-014 -1.15295e-014 1.84143e-031 4.42296e-015 -2.38542e-015 5.72877e-007 -2.58726e-006 -8.23583e-007 5.76618e-030 3.13583e-014 -1.05356e-014 3.18055e-015 2.91716e-014 -1.05356e-014 5.72877e-007 -2.58726e-006 -8.23583e-007 5.76618e-030 3.13583e-014 -1.05356e-014 3.18055e-015 2.91716e-014 -1.05356e-014 1.84143e-031 4.42296e-015 -2.38542e-015 5.72877e-007 -2.58726e-006 -8.23583e-007 5.76618e-030 3.13583e-014 -1.05356e-014 3.18055e-015 2.91716e-014 -1.05356e-014 5.72877e-007 -2.58726e-006 -8.23583e-007 5.76618e-030 3.13583e-014 -1.05356e-014 3.18055e-015 2.91716e-014 -1.05356e-014 3.01692 -16.4146 3.45119 -1.79758 34.214 4.08268 6.19074 25.9791 -3.77941 -3.01983 -16.4127 -3.45439 1.79507 34.2113 -4.08407 -6.19341 25.9797 3.77762 
0.000174788 -4.05076 -11.1743 -180 -83.3313 -180 1.57707 0.401722 0.199738 3.15286 0.808773 0.388359 3.15285 0.808796 0.388356 -0.0538433 3.41616 -0.942715 5.79782e-007 32.7611 1.35159e-006 -8.99082 -0.223303 -0.0106813 -8.42042 -10.1487 -34.2417 -61.0657 8.51526 -56.9621 -44.8856 15.8861 5.74996 -4.40974e-007 -3.41504e-006 5.36546e-007 4.25624e-007 1.47178e-006 -3.45292e-006 -1.38689e-006 -1.25056e-006 4.55465e-008 -3.18055e-015 -6.36111e-015 -3.18055e-015 -4.40974e-007 -3.41504e-006 5.36546e-007 4.25624e-007 1.47178e-006 -3.45292e-006 -1.38689e-006 -1.25056e-006 4.55465e-008 -4.40974e-007 -3.41504e-006 5.36546e-007 4.25624e-007 1.47178e-006 -3.45292e-006 -1.38689e-006 -1.25056e-006 4.55465e-008 -3.18055e-015 -6.36111e-015 -3.18055e-015 -4.40974e-007 -3.41504e-006 5.36546e-007 4.25624e-007 1.47178e-006 -3.45292e-006 -1.38689e-006 -1.25056e-006 4.55465e-008 -4.40974e-007 -3.41504e-006 5.36546e-007 4.25624e-007 1.47178e-006 -3.45292e-006 -1.38689e-006 -1.25056e-006 4.55465e-008 18.1685 0.0329996 8.92504 22.7659 -10.4309 18.9029 62.2067 3.49622 15.9891 38.5367 34.0451 -1.75666 1.59028e-015 -1.59028e-015 -0 1.59028e-015 0 -3.18055e-015 3.97569e-016 1.59028e-015 -3.18055e-015 3.97569e-016 -1.59028e-015 -0 -3.97569e-016 -2.38542e-015 6.36111e-015 3.97569e-016 0 -6.36111e-015 7.95139e-016 7.95139e-016 -3.18055e-015 -3.97569e-016 -2.38542e-015 6.36111e-015 3.97569e-016 0 -6.36111e-015 7.95139e-016 7.95139e-016 -3.18055e-015 3.97569e-016 -1.59028e-015 -0 -3.97569e-016 -2.38542e-015 6.36111e-015 3.97569e-016 0 -6.36111e-015 7.95139e-016 7.95139e-016 -3.18055e-015 -3.97569e-016 -2.38542e-015 6.36111e-015 3.97569e-016 0 -6.36111e-015 7.95139e-016 7.95139e-016 -3.18055e-015 7.00379 -23.5514 5.22151 -3.5216 49.5898 4.92925 6.92942 37.5903 -3.97566 -7.00852 -23.5509 -5.22619 3.51883 49.5886 -4.93224 -6.93273 37.5905 3.97282 
0.000175023 3.12818 -11.0152 -180 -89.9981 -180 1.46853 0.375701 0.184909 2.93594 0.75603 0.360141 2.93593 0.756018 0.36014 -0.194628 5.10527 -1.38816 1.95264e-006 28.9373 -8.44592e-007 -8.37082 -0.2079 -0.00995375 -7.60178 -9.44305 -31.5985 -56.4249 9.76495 -52.8583 -41.0383 14.8031 4.79711 4.77083e-015 1.59028e-015 9.54166e-015 6.36111e-015 -4.77083e-015 3.18055e-015 1.59028e-015 -4.77083e-015 -0 4.77083e-015 4.77083e-015 9.54166e-015 1.59028e-015 -7.95139e-015 6.36111e-015 -1.76556e-031 -1.59028e-015 -6.36111e-015 3.18055e-015 -4.77083e-015 -0 1.59028e-015 -7.95139e-015 6.36111e-015 -1.76556e-031 -1.59028e-015 -6.36111e-015 3.18055e-015 -4.77083e-015 -0 4.77083e-015 4.77083e-015 9.54166e-015 1.59028e-015 -7.95139e-015 6.36111e-015 -1.76556e-031 -1.59028e-015 -6.36111e-015 3.18055e-015 -4.77083e-015 -0 1.59028e-015 -7.95139e-015 6.36111e-015 -1.76556e-031 -1.59028e-015 -6.36111e-015 3.18055e-015 -4.77083e-015 -0 16.9158 0.0307715 8.30952 21.2748 -9.94896 16.8928 57.1333 4.13398 15.1386 35.6152 31.8223 -1.32188 5.56597e-015 -1.59028e-015 -3.18055e-015 1.59028e-015 -1.59028e-015 -3.18055e-015 1.59028e-015 -1.59028e-015 -3.18055e-015 3.97569e-015 -3.18055e-015 -3.18055e-015 1.59028e-015 1.59028e-015 -0 -1.59028e-015 -1.59028e-015 -3.18055e-015 -2.38542e-015 -4.77083e-015 -6.36111e-015 1.59028e-015 1.59028e-015 -0 -1.59028e-015 -1.59028e-015 -3.18055e-015 -2.38542e-015 -4.77083e-015 -6.36111e-015 3.97569e-015 -3.18055e-015 -3.18055e-015 1.59028e-015 1.59028e-015 -0 -1.59028e-015 -1.59028e-015 -3.18055e-015 -2.38542e-015 -4.77083e-015 -6.36111e-015 1.59028e-015 1.59028e-015 -0 -1.59028e-015 -1.59028e-015 -3.18055e-015 -2.38542e-015 -4.77083e-015 -6.36111e-015 6.08406 -21.9606 4.80405 -3.07978 46.1562 4.4302 6.60408 35.0489 -3.61452 -6.08843 -21.9593 -4.80844 3.07702 46.1543 -4.43266 -6.60727 35.0492 3.61193 
0.000175023 3.12818 -11.0152 -180 -89.9981 -180 1.46853 0.375701 0.184909 2.93594 0.75603 0.360141 2.93593 0.756018 0.36014 -0.306597 6.80605 -1.83598 1.06934e-006 27.5585 -6.93462e-007 -8.37082 -0.2079 -0.00995375 -7.88589 -9.1422 -31.757 -55.827 9.92983 -53.3734 -40.4977 14.6452 4.66897 1.03392e-006 -3.06748e-007 4.6501e-007 -1.03392e-006 3.06748e-007 -4.6501e-007 -2.00637e-006 1.12203e-006 1.13311e-007 1.59028e-015 0 6.36111e-015 1.03392e-006 -3.06748e-007 4.6501e-007 -1.03392e-006 3.06748e-007 -4.6501e-007 -2.00637e-006 1.12203e-006 1.13311e-007 1.03392e-006 -3.06748e-007 4.6501e-007 -1.03392e-006 3.06748e-007 -4.6501e-007 -2.00637e-006 1.12203e-006 1.13311e-007 1.59028e-015 0 6.36111e-015 1.03392e-006 -3.06748e-007 4.6501e-007 -1.03392e-006 3.06748e-007 -4.6501e-007 -2.00637e-006 1.12203e-006 1.13311e-007 1.03392e-006 -3.06748e-007 4.6501e-007 -1.03392e-006 3.06748e-007 -4.6501e-007 -2.00637e-006 1.12203e-006 1.13311e-007 16.9158 0.0307715 8.30952 21.6787 -10.0624 16.6189 56.5874 4.72769 16.2589 35.6151 31.8223 -1.32187 -1.59028e-015 6.36111e-015 6.36111e-015 -3.18055e-015 -3.18055e-015 3.18055e-015 -3.18055e-015 1.59028e-015 6.36111e-015 1.59028e-015 4.77083e-015 6.36111e-015 -7.95139e-016 1.59028e-015 6.36111e-015 -6.36111e-015 4.77083e-015 3.18055e-015 -4.77083e-015 3.18055e-015 3.18055e-015 -7.95139e-016 1.59028e-015 6.36111e-015 -6.36111e-015 4.77083e-015 3.18055e-015 -4.77083e-015 3.18055e-015 3.18055e-015 1.59028e-015 4.77083e-015 6.36111e-015 -7.95139e-016 1.59028e-015 6.36111e-015 -6.36111e-015 4.77083e-015 3.18055e-015 -4.77083e-015 3.18055e-015 3.18055e-015 -7.95139e-016 1.59028e-015 6.36111e-015 -6.36111e-015 4.77083e-015 3.18055e-015 -4.77083e-015 3.18055e-015 3.18055e-015 6.08406 -21.9606 4.80405 -3.07978 46.1562 4.4302 6.60408 35.0489 -3.61452 -6.08843 -21.9593 -4.80844 3.07702 46.1543 -4.43266 -6.60727 35.0492 3.61193 
0.000175023 3.12818 -11.0152 -180 -89.9981 -180 1.46853 0.375701 0.184909 2.93594 0.75603 0.360141 2.93593 0.756018 0.36014 -0.40589 8.51337 -2.2837 -2.02675e-006 26.1767 1.54284e-006 -8.37082 -0.2079 -0.00995375 -8.16914 -8.84028 -31.914 -55.2259 10.0899 -53.8918 -39.9572 14.4859 4.54232 6.36111e-015 -7.95139e-015 -3.18055e-015 7.95139e-015 -6.36111e-015 -6.36111e-015 3.18055e-015 -4.77083e-015 -3.18055e-015 3.18055e-015 -3.18055e-015 -6.36111e-015 3.53113e-031 -3.18055e-015 6.36111e-015 7.95139e-015 -3.18055e-015 -6.36111e-015 4.77083e-015 -3.18055e-015 -0 3.53113e-031 -3.18055e-015 6.36111e-015 7.95139e-015 -3.18055e-015 -6.36111e-015 4.77083e-015 -3.18055e-015 -0 3.18055e-015 -3.18055e-015 -6.36111e-015 3.53113e-031 -3.18055e-015 6.36111e-015 7.95139e-015 -3.18055e-015 -6.36111e-015 4.77083e-015 -3.18055e-015 -0 3.53113e-031 -3.18055e-015 6.36111e-015 7.95139e-015 -3.18055e-015 -6.36111e-015 4.77083e-015 -3.18055e-015 -0 16.9158 0.0307715 8.30952 22.0827 -10.1778 16.3454 56.0264 5.31384 17.392 35.6152 31.8223 -1.32188 1.07754e-006 -1.43739e-006 3.48398e-007 -1.07754e-006 1.43739e-006 -3.48398e-007 1.07754e-006 -1.43739e-006 3.48398e-007 -7.95139e-016 3.18055e-015 -6.36111e-015 1.07754e-006 -1.43739e-006 3.48398e-007 -1.07754e-006 1.43739e-006 -3.48398e-007 1.07754e-006 -1.43739e-006 3.48398e-007 1.07754e-006 -1.43739e-006 3.48398e-007 -1.07754e-006 1.43739e-006 -3.48398e-007 1.07754e-006 -1.43739e-006 3.48398e-007 -7.95139e-016 3.18055e-015 -6.36111e-015 1.07754e-006 -1.43739e-006 3.48398e-007 -1.07754e-006 1.43739e-006 -3.48398e-007 1.07754e-006 -1.43739e-006 3.48398e-007 1.07754e-006 -1.43739e-006 3.48398e-007 -1.07754e-006 1.43739e-006 -3.48398e-007 1.07754e-006 -1.43739e-006 3.48398e-007 6.08406 -21.9606 4.80405 -3.07978 46.1562 4.4302 6.60408 35.0489 -3.61452 -6.08843 -21.9593 -4.80844 3.07702 46.1543 -4.43266 -6.60727 35.0492 3.61193 
